<svg width="66" height="67" viewBox="0 0 66 67" fill="none" xmlns="http://www.w3.org/2000/svg">
<mask id="mask0_1358_2251" style="mask-type:luminance" maskUnits="userSpaceOnUse" x="0" y="0" width="66" height="67">
<path d="M65.8647 0.00585938H0V66.7559H65.8647V0.00585938Z" fill="white"/>
</mask>
<g mask="url(#mask0_1358_2251)">
<path d="M5.81207 66.7563C4.2613 66.7563 2.80212 66.1519 1.70926 65.059C0.610291 63.96 0.00585938 62.5009 0.00585938 60.9501V23.0663C0.00585938 21.0637 1.01325 19.226 2.71054 18.1575L29.7573 1.01367C31.8515 -0.3112 34.4646 -0.341727 36.5831 0.940401L63.2514 17.083C64.8632 18.0599 65.8645 19.8365 65.8645 21.7231V61.2187C65.8645 64.1981 63.4407 66.6342 60.4612 66.6464L56.4866 66.683C56.4439 66.683 56.4073 66.683 56.3645 66.683L48.8855 66.738C47.0844 66.7258 45.3566 65.9138 44.2454 64.5095C44.2026 64.4607 44.166 64.4057 44.1355 64.3508L34.5134 49.3499C34.1288 48.7516 34.1044 47.9945 34.4463 47.3717C34.7882 46.749 35.4414 46.3644 36.1497 46.3644H37.5417C41.6628 46.3644 45.0208 43.0125 45.0208 38.8853C45.0208 34.758 41.6628 31.4062 37.5417 31.4062H22.8399V60.8829C22.8399 64.1127 20.2085 66.7441 16.9727 66.7441H9.0296L5.82428 66.7502H5.81207V66.7563ZM33.2252 3.88929C32.7429 3.88929 32.2605 4.02361 31.8332 4.29835L4.78026 21.4361C4.22467 21.7841 3.88277 22.4069 3.88277 23.0602V60.944C3.88277 61.4568 4.08425 61.9392 4.44446 62.3055C4.80468 62.6718 5.2809 62.8977 5.80596 62.8672L9.01739 62.855H16.9727C18.0655 62.8611 18.9569 61.9758 18.9569 60.8829V29.4647C18.9569 28.3901 19.8239 27.5232 20.8984 27.5232H37.5417C43.8058 27.5232 48.9038 32.6212 48.9038 38.8853C48.9038 44.4534 44.8803 49.0996 39.587 50.0642L47.3469 62.1651C47.7254 62.6046 48.281 62.8489 48.861 62.855L56.4439 62.7939C56.4805 62.7939 56.5172 62.7939 56.5538 62.7939L60.4307 62.7573C61.2855 62.7573 61.9754 62.0613 61.9754 61.2126V21.7292C61.9754 21.1919 61.6945 20.6913 61.2366 20.4104L34.5745 4.26783C34.1593 4.01751 33.6953 3.88929 33.2313 3.88929H33.2252Z" fill="white"/>
</g>
</svg>
