<svg width="281" height="67" viewBox="0 0 281 67" fill="none" xmlns="http://www.w3.org/2000/svg">
<g clip-path="url(#clip0_741_263)">
<path d="M86.8856 44.911H82.2211V17.9863H86.8856H95.3659C99.481 17.9863 102.827 21.5152 102.827 25.8562C102.827 30.1971 99.4932 33.7138 95.3904 33.726L102.118 44.9049H96.6725L89.9566 33.726H86.8917V44.9049L86.8856 44.911ZM86.8856 22.4738V29.2385H95.3659C97.0022 29.2385 98.3393 27.7183 98.3393 25.8562C98.3393 23.994 97.0083 22.4738 95.3659 22.4738H86.8856Z" fill="white"/>
<path d="M125.874 44.9476H107.894V17.9863H125.874V21.8938H112.553V29.1347H124.366V33.7992H112.553V41.0402H125.874V44.9476Z" fill="white"/>
<path d="M129.788 31.4365C129.788 23.9879 135.478 17.9375 142.463 17.9375C148.721 17.9375 153.929 22.7852 154.948 29.1409H150.381C149.453 25.2762 146.26 22.4249 142.463 22.4249C137.951 22.4249 134.275 26.4606 134.275 31.4365C134.275 36.4124 137.957 40.4419 142.463 40.4419C146.242 40.4419 149.417 37.6212 150.357 33.7993H154.93C153.886 40.1183 148.696 44.9232 142.457 44.9232C135.472 44.9232 129.782 38.8728 129.782 31.4365H129.788Z" fill="white"/>
<path d="M158.959 31.4306C158.959 23.9882 164.643 17.9316 171.634 17.9316C178.625 17.9316 184.309 23.9882 184.309 31.4306C184.309 38.8731 178.625 44.9296 171.634 44.9296C164.643 44.9296 158.959 38.8731 158.959 31.4306ZM163.447 31.4306C163.447 36.4004 167.122 40.4421 171.634 40.4421C176.146 40.4421 179.821 36.4004 179.821 31.4306C179.821 26.4608 176.146 22.4191 171.634 22.4191C167.122 22.4191 163.447 26.4608 163.447 31.4306Z" fill="white"/>
<path d="M194.45 44.9474L185.396 17.9922H190.146L196.856 39.2084L203.565 17.9922H208.315L199.261 44.9474H194.462H194.45Z" fill="white"/>
<path d="M230.002 44.9476H212.021V17.9863H230.002V21.8938H216.68V29.1347H228.494V33.7992H216.68V41.0402H230.002V44.9476Z" fill="white"/>
<path d="M239.66 44.911H234.996V17.9863H239.66H248.141C252.256 17.9863 255.601 21.5152 255.601 25.8562C255.601 30.1971 252.268 33.7138 248.165 33.726L254.893 44.9049H249.447L242.731 33.726H239.666V44.9049L239.66 44.911ZM239.66 22.4738V29.2385H248.141C249.777 29.2385 251.114 27.7183 251.114 25.8562C251.114 23.994 249.783 22.4738 248.141 22.4738H239.66Z" fill="white"/>
<path d="M280.09 17.9922L271.176 32.1566L270.755 32.8221V45.1122H266.09V32.8221L265.669 32.1566L256.755 17.9922H262.268L266.09 24.0609L268.423 27.7669L270.755 24.0609L274.577 17.9922H280.09Z" fill="white"/>
<path d="M81.1526 58.6665C81.1526 54.2157 84.5533 50.6074 88.7233 50.6074C92.4597 50.6074 95.5674 53.5014 96.1779 57.2989H93.4488C92.8932 54.9911 90.9883 53.2877 88.7171 53.2877C86.0247 53.2877 83.8267 55.6993 83.8267 58.6665C83.8267 61.6337 86.0247 64.0453 88.7171 64.0453C90.97 64.0453 92.8688 62.3603 93.4305 60.083H96.1657C95.5429 63.8561 92.4414 66.7256 88.7171 66.7256C84.5472 66.7256 81.1465 63.1112 81.1465 58.6665H81.1526Z" fill="white"/>
<path d="M100.024 66.7376H97.0571L103.169 50.6377H105.983L112.07 66.7376H109.103L107.546 62.3722H101.593L100.024 66.7376ZM102.595 59.5882H106.551L104.579 54.0628L102.589 59.5882H102.595Z" fill="white"/>
<path d="M117.693 66.7134H114.909V50.6318H117.693H122.761C125.215 50.6318 127.218 52.7382 127.218 55.333C127.218 57.9278 125.227 60.028 122.773 60.0341L126.79 66.7134H123.536L119.525 60.0402H117.693V66.7195V66.7134ZM117.693 53.3182V57.36H122.761C123.738 57.36 124.537 56.4564 124.537 55.3391C124.537 54.2218 123.744 53.3182 122.761 53.3182H117.693Z" fill="white"/>
<path d="M140.924 66.7376H130.185V50.6377H140.924V52.9699H132.969V57.2925H140.021V60.0766H132.969V64.3992H140.924V66.7315V66.7376Z" fill="white"/>
<path d="M149.551 55.3877C149.551 54.3314 150.07 53.1836 150.937 52.3228C151.706 51.5535 153.098 50.6377 155.351 50.6377H155.376C157.274 50.6377 158.764 51.2299 159.808 52.3777C161.188 53.898 161.273 55.8639 161.249 56.5782H158.563C158.575 56.4012 158.618 55.0397 157.806 54.1666C157.293 53.6049 156.468 53.318 155.363 53.3118H155.345C154.008 53.3118 153.233 53.8003 152.817 54.2154C152.408 54.6245 152.219 55.1007 152.219 55.3816C152.219 55.8578 152.219 56.5721 155.321 57.5856L155.876 57.7627C158.343 58.5503 161.139 59.4477 161.304 61.9021C161.328 62.3173 161.328 63.7765 160.15 65.0342C159.106 66.1575 157.519 66.7192 155.437 66.7192H155.431C153.733 66.7192 152.268 66.1453 151.193 65.0586C150.131 63.9901 149.533 62.4882 149.551 60.9436L152.231 60.9741C152.225 61.7922 152.543 62.6164 153.098 63.172C153.672 63.7459 154.454 64.039 155.437 64.039C156.731 64.039 157.69 63.7459 158.196 63.2025C158.672 62.6958 158.636 62.0975 158.636 62.0731C158.593 61.432 156.212 60.6749 155.07 60.3086L154.503 60.1254C150.986 58.9837 149.551 57.61 149.551 55.3816V55.3877Z" fill="white"/>
<path d="M163.844 58.6665C163.844 54.2218 167.238 50.6074 171.414 50.6074C175.59 50.6074 178.985 54.2218 178.985 58.6665C178.985 63.1112 175.59 66.7256 171.414 66.7256C167.238 66.7256 163.844 63.1112 163.844 58.6665ZM166.524 58.6665C166.524 61.6337 168.716 64.0453 171.414 64.0453C174.113 64.0453 176.305 61.6337 176.305 58.6665C176.305 55.6993 174.113 53.2877 171.414 53.2877C168.716 53.2877 166.524 55.6993 166.524 58.6665Z" fill="white"/>
<path d="M193.052 66.7376H182.312V50.6377H185.096V64.4053H193.052V66.7376Z" fill="white"/>
<path d="M206.886 60.6385C206.886 64.027 204.286 66.7866 201.092 66.7866C197.899 66.7866 195.298 64.027 195.298 60.6385V50.6318H197.979V60.6385C197.979 62.5495 199.377 64.1064 201.092 64.1064C202.808 64.1064 204.206 62.5495 204.206 60.6385V50.6318H206.886V60.6385Z" fill="white"/>
<path d="M214.689 53.4217H209.432V50.6377H222.779V53.4217H217.473V66.8352H214.689V53.4217Z" fill="white"/>
<path d="M225.978 66.7376V50.6377H228.762V66.7376H225.978Z" fill="white"/>
<path d="M232.096 58.6665C232.096 54.2218 235.49 50.6074 239.666 50.6074C243.842 50.6074 247.237 54.2218 247.237 58.6665C247.237 63.1112 243.842 66.7256 239.666 66.7256C235.49 66.7256 232.096 63.1112 232.096 58.6665ZM234.776 58.6665C234.776 61.6337 236.968 64.0453 239.666 64.0453C242.365 64.0453 244.557 61.6337 244.557 58.6665C244.557 55.6993 242.365 53.2877 239.666 53.2877C236.968 53.2877 234.776 55.6993 234.776 58.6665Z" fill="white"/>
<path d="M253.342 66.7376H250.558V50.6377H253.593L260.101 61.8899V50.6377H262.885V66.7376H260.064L253.342 55.1251V66.7376Z" fill="white"/>
<path d="M266.652 55.3877C266.652 54.3314 267.171 53.1836 268.038 52.3228C268.807 51.5535 270.199 50.6377 272.452 50.6377H272.477C274.375 50.6377 275.865 51.2299 276.909 52.3777C278.289 53.898 278.374 55.8639 278.35 56.5782H275.664C275.676 56.4012 275.718 55.0397 274.906 54.1666C274.394 53.6049 273.569 53.318 272.464 53.3118H272.446C271.109 53.3118 270.334 53.8003 269.918 54.2154C269.509 54.6245 269.32 55.1007 269.32 55.3816C269.32 55.8578 269.32 56.5721 272.422 57.5856L272.977 57.7627C275.444 58.5503 278.24 59.4477 278.405 61.9021C278.429 62.3173 278.429 63.7765 277.251 65.0342C276.207 66.1575 274.62 66.7192 272.538 66.7192H272.531C270.834 66.7192 269.369 66.1453 268.294 65.0586C267.232 63.9901 266.634 62.4882 266.652 60.9436L269.332 60.9741C269.326 61.7922 269.644 62.6164 270.199 63.172C270.773 63.7459 271.555 64.039 272.538 64.039C273.832 64.039 274.79 63.7459 275.297 63.2025C275.773 62.6958 275.737 62.0975 275.737 62.0731C275.694 61.432 273.313 60.6749 272.171 60.3086L271.603 60.1254C268.087 58.9837 266.652 57.61 266.652 55.3816V55.3877Z" fill="white"/>
<mask id="mask0_741_263" style="mask-type:luminance" maskUnits="userSpaceOnUse" x="-1" y="0" width="67" height="67">
<path d="M65.8646 0.00585938H-0.00012207V66.7559H65.8646V0.00585938Z" fill="white"/>
</mask>
<g mask="url(#mask0_741_263)">
<path d="M5.81219 66.7563C4.26143 66.7563 2.80224 66.1519 1.70938 65.059C0.610413 63.96 0.00598145 62.5009 0.00598145 60.9501V23.0663C0.00598145 21.0637 1.01337 19.226 2.71066 18.1575L29.7575 1.01367C31.8516 -0.3112 34.4647 -0.341727 36.5833 0.940401L63.2515 17.083C64.8633 18.0599 65.8646 19.8365 65.8646 21.7231V61.2187C65.8646 64.1981 63.4408 66.6342 60.4614 66.6464L56.4868 66.683C56.444 66.683 56.4074 66.683 56.3647 66.683L48.8856 66.738C47.0845 66.7258 45.3567 65.9138 44.2455 64.5095C44.2028 64.4607 44.1661 64.4057 44.1356 64.3508L34.5135 49.3499C34.1289 48.7516 34.1045 47.9945 34.4464 47.3717C34.7883 46.749 35.4416 46.3644 36.1498 46.3644H37.5418C41.6629 46.3644 45.0209 43.0125 45.0209 38.8853C45.0209 34.758 41.6629 31.4062 37.5418 31.4062H22.8401V60.8829C22.8401 64.1127 20.2087 66.7441 16.9728 66.7441H9.02972L5.8244 66.7502H5.81219V66.7563ZM33.2253 3.88929C32.743 3.88929 32.2607 4.02361 31.8333 4.29835L4.78038 21.4361C4.22479 21.7841 3.88289 22.4069 3.88289 23.0602V60.944C3.88289 61.4568 4.08437 61.9392 4.44459 62.3055C4.8048 62.6718 5.28102 62.8977 5.80608 62.8672L9.01751 62.855H16.9728C18.0657 62.8611 18.9571 61.9758 18.9571 60.8829V29.4647C18.9571 28.3901 19.824 27.5232 20.8986 27.5232H37.5418C43.8059 27.5232 48.9039 32.6212 48.9039 38.8853C48.9039 44.4534 44.8805 49.0996 39.5871 50.0642L47.347 62.1651C47.7256 62.6046 48.2811 62.8489 48.8612 62.855L56.444 62.7939C56.4807 62.7939 56.5173 62.7939 56.5539 62.7939L60.4308 62.7573C61.2856 62.7573 61.9755 62.0613 61.9755 61.2126V21.7292C61.9755 21.1919 61.6947 20.6913 61.2367 20.4104L34.5746 4.26783C34.1594 4.01751 33.6954 3.88929 33.2314 3.88929H33.2253Z" fill="#73C3ED"/>
</g>
</g>
<defs>
<clipPath id="clip0_741_263">
<rect width="280.09" height="66.8355" fill="white"/>
</clipPath>
</defs>
</svg>
