<svg width="66" height="67" viewBox="0 0 66 67" fill="none" xmlns="http://www.w3.org/2000/svg">
<path d="M5.81231 66.7553C4.26155 66.7553 2.80236 66.1509 1.7095 65.058C0.610535 63.9591 0.00610352 62.4999 0.00610352 60.9491V23.0653C0.00610352 21.0627 1.01349 19.225 2.71078 18.1566L29.7576 1.01269C31.8517 -0.312177 34.4648 -0.342703 36.5834 0.939424L63.2516 17.082C64.8635 18.0589 65.8647 19.8355 65.8647 21.7221V61.2177C65.8647 64.1972 63.4409 66.6332 60.4615 66.6454L56.4869 66.6821C56.4441 66.6821 56.4075 66.6821 56.3648 66.6821L48.8857 66.737C47.0846 66.7248 45.3568 65.9128 44.2456 64.5085C44.2029 64.4597 44.1663 64.4048 44.1357 64.3498L34.5137 49.3489C34.129 48.7506 34.1046 47.9935 34.4465 47.3708C34.7884 46.748 35.4417 46.3634 36.1499 46.3634H37.5419C41.6631 46.3634 45.021 43.0115 45.021 38.8843C45.021 34.7571 41.6631 31.4052 37.5419 31.4052H22.8402V60.882C22.8402 64.1117 20.2088 66.7431 16.9729 66.7431H9.02984L5.82452 66.7492H5.81231V66.7553ZM33.2254 3.88832C32.7431 3.88832 32.2608 4.02264 31.8334 4.29738L4.7805 21.4352C4.22491 21.7832 3.88301 22.4059 3.88301 23.0592V60.943C3.88301 61.4559 4.08449 61.9382 4.44471 62.3045C4.80492 62.6708 5.28114 62.8967 5.80621 62.8662L9.01763 62.854H16.9729C18.0658 62.8601 18.9572 61.9748 18.9572 60.882V29.4637C18.9572 28.3892 19.8241 27.5222 20.8987 27.5222H37.5419C43.806 27.5222 48.904 32.6202 48.904 38.8843C48.904 44.4524 44.8806 49.0986 39.5872 50.0632L47.3472 62.1641C47.7257 62.6037 48.2813 62.8479 48.8613 62.854L56.4442 62.7929C56.4808 62.7929 56.5174 62.7929 56.554 62.7929L60.431 62.7563C61.2857 62.7563 61.9756 62.0603 61.9756 61.2116V21.7282C61.9756 21.1909 61.6948 20.6903 61.2369 20.4095L34.5747 4.26685C34.1595 4.01653 33.6955 3.88832 33.2315 3.88832H33.2254Z" fill="#73C3ED"/>
</svg>
