<svg width="180" height="43" viewBox="0 0 180 43" fill="none" xmlns="http://www.w3.org/2000/svg">
<g clip-path="url(#clip0_1289_1392)">
<path d="M55.8091 28.8472H52.813V11.5527H55.8091H61.2563C63.8995 11.5527 66.0486 13.8195 66.0486 16.6078C66.0486 19.3961 63.9074 21.6549 61.272 21.6628L65.5937 28.8433H62.0956L57.7817 21.6628H55.8131V28.8433L55.8091 28.8472ZM55.8091 14.4352V18.7804H61.2563C62.3073 18.7804 63.1662 17.8039 63.1662 16.6078C63.1662 15.4116 62.3112 14.4352 61.2563 14.4352H55.8091Z" fill="#162F40"/>
<path d="M80.8532 28.8708H69.304V11.5527H80.8532V14.0626H72.2962V18.7137H79.8846V21.7098H72.2962V26.3609H80.8532V28.8708Z" fill="#162F40"/>
<path d="M83.3665 20.1923C83.3665 15.4078 87.0215 11.5215 91.5078 11.5215C95.5275 11.5215 98.8727 14.6353 99.5276 18.7177H96.5942C95.9981 16.2353 93.9471 14.4039 91.5078 14.4039C88.6097 14.4039 86.2489 16.9961 86.2489 20.1923C86.2489 23.3884 88.6136 25.9767 91.5078 25.9767C93.9353 25.9767 95.9746 24.1649 96.5785 21.71H99.5159C98.8453 25.7689 95.5118 28.8552 91.5039 28.8552C87.0175 28.8552 83.3625 24.9689 83.3625 20.1923H83.3665Z" fill="#162F40"/>
<path d="M102.104 20.1884C102.104 15.4079 105.755 11.5176 110.246 11.5176C114.736 11.5176 118.387 15.4079 118.387 20.1884C118.387 24.9689 114.736 28.8591 110.246 28.8591C105.755 28.8591 102.104 24.9689 102.104 20.1884ZM104.987 20.1884C104.987 23.3806 107.348 25.9767 110.246 25.9767C113.144 25.9767 115.505 23.3806 115.505 20.1884C115.505 16.9961 113.144 14.4 110.246 14.4C107.348 14.4 104.987 16.9961 104.987 20.1884Z" fill="#162F40"/>
<path d="M124.902 28.8708L119.086 11.5566H122.137L126.447 25.1844L130.757 11.5566H133.808L127.992 28.8708H124.909H124.902Z" fill="#162F40"/>
<path d="M147.737 28.8708H136.188V11.5527H147.737V14.0626H139.18V18.7137H146.768V21.7098H139.18V26.3609H147.737V28.8708Z" fill="#162F40"/>
<path d="M153.941 28.8472H150.945V11.5527H153.941H159.388C162.032 11.5527 164.181 13.8195 164.181 16.6078C164.181 19.3961 162.039 21.6549 159.404 21.6628L163.726 28.8433H160.228L155.914 21.6628H153.945V28.8433L153.941 28.8472ZM153.941 14.4352V18.7804H159.388C160.439 18.7804 161.298 17.8039 161.298 16.6078C161.298 15.4116 160.443 14.4352 159.388 14.4352H153.941Z" fill="#162F40"/>
<path d="M179.91 11.5566L174.185 20.6549L173.914 21.0823V28.9766H170.918V21.0823L170.647 20.6549L164.922 11.5566H168.463L170.918 15.4548L172.416 17.8352L173.914 15.4548L176.369 11.5566H179.91Z" fill="#162F40"/>
<path d="M52.1267 37.6824C52.1267 34.8236 54.3111 32.5059 56.9896 32.5059C59.3896 32.5059 61.3858 34.3647 61.7779 36.804H60.0249C59.6681 35.3216 58.4445 34.2275 56.9857 34.2275C55.2562 34.2275 53.8444 35.7765 53.8444 37.6824C53.8444 39.5884 55.2562 41.1374 56.9857 41.1374C58.4327 41.1374 59.6524 40.0551 60.0132 38.5923H61.7701C61.3701 41.0159 59.3779 42.859 56.9857 42.859C54.3072 42.859 52.1228 40.5374 52.1228 37.6824H52.1267Z" fill="#162F40"/>
<path d="M64.2485 42.8668H62.3425L66.2681 32.5254H68.076L71.9859 42.8668H70.08L69.0799 40.0628H65.2563L64.2485 42.8668ZM65.8995 38.2745H68.4407L67.174 34.7254L65.8956 38.2745H65.8995Z" fill="#162F40"/>
<path d="M75.5986 42.8511H73.8103V32.5215H75.5986H78.8536C80.4301 32.5215 81.7164 33.8745 81.7164 35.5412C81.7164 37.2079 80.4379 38.5569 78.8614 38.5608L81.4418 42.8511H79.3516L76.7751 38.5648H75.5986V42.8551V42.8511ZM75.5986 34.247V36.8432H78.8536C79.481 36.8432 79.9948 36.2627 79.9948 35.5451C79.9948 34.8274 79.4849 34.247 78.8536 34.247H75.5986Z" fill="#162F40"/>
<path d="M90.5203 42.8668H83.6221V32.5254H90.5203V34.0235H85.4103V36.8H89.9399V38.5883H85.4103V41.3648H90.5203V42.8629V42.8668Z" fill="#162F40"/>
<path d="M96.0613 35.5764C96.0613 34.898 96.3946 34.1607 96.9515 33.6078C97.4456 33.1136 98.3398 32.5254 99.7869 32.5254H99.8026C101.022 32.5254 101.979 32.9058 102.65 33.6431C103.536 34.6196 103.591 35.8823 103.575 36.3412H101.85C101.858 36.2274 101.885 35.3529 101.363 34.7921C101.034 34.4313 100.505 34.247 99.7947 34.2431H99.783C98.9241 34.2431 98.4261 34.5568 98.1594 34.8235C97.8966 35.0862 97.7751 35.3921 97.7751 35.5725C97.7751 35.8784 97.7751 36.3372 99.7673 36.9882L100.124 37.102C101.708 37.6079 103.505 38.1843 103.61 39.7608C103.626 40.0275 103.626 40.9648 102.869 41.7727C102.199 42.4942 101.179 42.855 99.8418 42.855H99.8379C98.7476 42.855 97.8064 42.4864 97.1162 41.7883C96.4339 41.1021 96.0495 40.1373 96.0613 39.1451L97.7829 39.1648C97.779 39.6903 97.9829 40.2197 98.3398 40.5766C98.7084 40.9452 99.2104 41.1334 99.8418 41.1334C100.673 41.1334 101.289 40.9452 101.614 40.5962C101.92 40.2707 101.897 39.8863 101.897 39.8707C101.869 39.4589 100.34 38.9726 99.6065 38.7373L99.2418 38.6196C96.9829 37.8863 96.0613 37.0039 96.0613 35.5725V35.5764Z" fill="#162F40"/>
<path d="M105.242 37.6824C105.242 34.8275 107.422 32.5059 110.105 32.5059C112.787 32.5059 114.967 34.8275 114.967 37.6824C114.967 40.5374 112.787 42.859 110.105 42.859C107.422 42.859 105.242 40.5374 105.242 37.6824ZM106.963 37.6824C106.963 39.5884 108.371 41.1374 110.105 41.1374C111.838 41.1374 113.246 39.5884 113.246 37.6824C113.246 35.7765 111.838 34.2275 110.105 34.2275C108.371 34.2275 106.963 35.7765 106.963 37.6824Z" fill="#162F40"/>
<path d="M124.003 42.8668H117.105V32.5254H118.893V41.3687H124.003V42.8668Z" fill="#162F40"/>
<path d="M132.89 38.9491C132.89 41.1256 131.219 42.8982 129.168 42.8982C127.117 42.8982 125.446 41.1256 125.446 38.9491V32.5215H127.168V38.9491C127.168 40.1766 128.066 41.1766 129.168 41.1766C130.27 41.1766 131.168 40.1766 131.168 38.9491V32.5215H132.89V38.9491Z" fill="#162F40"/>
<path d="M137.901 34.3137H134.524V32.5254H143.097V34.3137H139.689V42.9296H137.901V34.3137Z" fill="#162F40"/>
<path d="M145.153 42.8668V32.5254H146.941V42.8668H145.153Z" fill="#162F40"/>
<path d="M149.082 37.6824C149.082 34.8275 151.262 32.5059 153.945 32.5059C156.627 32.5059 158.808 34.8275 158.808 37.6824C158.808 40.5374 156.627 42.859 153.945 42.859C151.262 42.859 149.082 40.5374 149.082 37.6824ZM150.804 37.6824C150.804 39.5884 152.212 41.1374 153.945 41.1374C155.678 41.1374 157.086 39.5884 157.086 37.6824C157.086 35.7765 155.678 34.2275 153.945 34.2275C152.212 34.2275 150.804 35.7765 150.804 37.6824Z" fill="#162F40"/>
<path d="M162.729 42.8668H160.941V32.5254H162.89L167.071 39.753V32.5254H168.859V42.8668H167.047L162.729 35.4078V42.8668Z" fill="#162F40"/>
<path d="M171.279 35.5764C171.279 34.898 171.612 34.1607 172.169 33.6078C172.663 33.1136 173.558 32.5254 175.005 32.5254H175.02C176.24 32.5254 177.197 32.9058 177.867 33.6431C178.754 34.6196 178.809 35.8823 178.793 36.3412H177.067C177.075 36.2274 177.103 35.3529 176.581 34.7921C176.252 34.4313 175.722 34.247 175.012 34.2431H175.001C174.142 34.2431 173.644 34.5568 173.377 34.8235C173.114 35.0862 172.993 35.3921 172.993 35.5725C172.993 35.8784 172.993 36.3372 174.985 36.9882L175.342 37.102C176.926 37.6079 178.722 38.1843 178.828 39.7608C178.844 40.0275 178.844 40.9648 178.087 41.7727C177.416 42.4942 176.397 42.855 175.06 42.855H175.056C173.965 42.855 173.024 42.4864 172.334 41.7883C171.652 41.1021 171.267 40.1373 171.279 39.1451L173.001 39.1648C172.997 39.6903 173.201 40.2197 173.558 40.5766C173.926 40.9452 174.428 41.1334 175.06 41.1334C175.891 41.1334 176.507 40.9452 176.832 40.5962C177.138 40.2707 177.115 39.8863 177.115 39.8707C177.087 39.4589 175.558 38.9726 174.824 38.7373L174.46 38.6196C172.201 37.8863 171.279 37.0039 171.279 35.5725V35.5764Z" fill="#162F40"/>
<mask id="mask0_1289_1392" style="mask-type:luminance" maskUnits="userSpaceOnUse" x="0" y="0" width="43" height="43">
<path d="M42.3071 0.00390625H0.000244141V42.8794H42.3071V0.00390625Z" fill="white"/>
</mask>
<g mask="url(#mask0_1289_1392)">
<path d="M3.73365 42.8801C2.73755 42.8801 1.80027 42.4919 1.09829 41.7899C0.392395 41.084 0.00415039 40.1468 0.00415039 39.1507V14.8168C0.00415039 13.5305 0.651224 12.35 1.74145 11.6638L19.1144 0.651734C20.4595 -0.199266 22.138 -0.218874 23.4988 0.604674L40.6286 10.9735C41.6639 11.601 42.3071 12.7422 42.3071 13.954V39.3232C42.3071 41.237 40.7502 42.8017 38.8364 42.8096L36.2834 42.8331C36.256 42.8331 36.2324 42.8331 36.205 42.8331L31.4009 42.8684C30.2441 42.8605 29.1342 42.339 28.4205 41.437C28.393 41.4056 28.3695 41.3703 28.3499 41.335L22.1694 31.6995C21.9223 31.3152 21.9066 30.8289 22.1262 30.4289C22.3458 30.0289 22.7655 29.7818 23.2204 29.7818H24.1145C26.7616 29.7818 28.9185 27.6288 28.9185 24.9778C28.9185 22.3267 26.7616 20.1737 24.1145 20.1737H14.6712V39.1075C14.6712 41.1821 12.9809 42.8723 10.9024 42.8723H5.80036L3.74149 42.8762H3.73365V42.8801ZM21.3419 2.49884C21.0321 2.49884 20.7223 2.58511 20.4478 2.76159L3.07089 13.7697C2.71402 13.9932 2.4944 14.3932 2.4944 14.8128V39.1467C2.4944 39.4762 2.62382 39.786 2.8552 40.0213C3.08657 40.2566 3.39246 40.4017 3.72973 40.3821L5.79252 40.3742H10.9024C11.6044 40.3781 12.177 39.8095 12.177 39.1075V18.9267C12.177 18.2365 12.7339 17.6796 13.4241 17.6796H24.1145C28.1381 17.6796 31.4127 20.9542 31.4127 24.9778C31.4127 28.5543 28.8283 31.5387 25.4283 32.1583L30.4127 39.9311C30.6558 40.2134 31.0127 40.3703 31.3853 40.3742L36.256 40.335C36.2795 40.335 36.303 40.335 36.3265 40.335L38.8168 40.3115C39.3658 40.3115 39.809 39.8644 39.809 39.3193V13.9579C39.809 13.6128 39.6286 13.2912 39.3345 13.1108L22.2086 2.74198C21.9419 2.58119 21.6439 2.49884 21.3458 2.49884H21.3419Z" fill="#162F40"/>
</g>
</g>
<defs>
<clipPath id="clip0_1289_1392">
<rect width="179.91" height="42.9304" fill="white"/>
</clipPath>
</defs>
</svg>
