<svg width="36" height="36" viewBox="0 0 36 36" fill="none" xmlns="http://www.w3.org/2000/svg">
<g clip-path="url(#clip0_923_2888)">
<path d="M18.0007 8.52083C16.4344 7.66625 14.2338 6.33333 12.1673 6.33333C9.10482 6.33333 6.33398 8.15187 6.33398 13.625C6.33398 20.7694 7.87398 25.8896 10.2292 28.9915C11.0648 30.094 13.1021 29.7512 13.9727 28.6473C14.5532 27.9108 15.1671 26.5487 15.8132 24.5625C16.239 23.4381 17.114 22.3692 18.0007 22.375C18.8786 22.375 19.7652 23.4498 20.1882 24.5625C20.8342 26.5487 21.4482 27.9094 22.0286 28.6458C22.8992 29.7527 24.9452 30.094 25.7721 28.9915C28.1273 25.8896 29.6673 20.7708 29.6673 13.625C29.6673 8.17083 26.8848 6.33333 23.834 6.33333C21.7588 6.33333 19.5757 7.66187 18.0007 8.52083Z" stroke="#162F40" stroke-width="2.1875" stroke-linecap="round" stroke-linejoin="round"/>
<path d="M18 8.52083L22.375 10.7083" stroke="#162F40" stroke-width="2.1875" stroke-linecap="round" stroke-linejoin="round"/>
</g>
<defs>
<clipPath id="clip0_923_2888">
<rect width="35" height="35" fill="white" transform="translate(0.5 0.5)"/>
</clipPath>
</defs>
</svg>
