<svg width="36" height="36" viewBox="0 0 36 36" fill="none" xmlns="http://www.w3.org/2000/svg">
<g clip-path="url(#clip0_923_2896)">
<path d="M9.25 15.0833C9.24876 13.5096 9.61137 11.9569 10.3095 10.5465C11.0077 9.13615 12.0224 7.90628 13.2746 6.95299C14.5267 5.9997 15.9823 5.3488 17.5276 5.05116C19.0729 4.75351 20.6661 4.81717 22.1827 5.23716C23.6994 5.65715 25.0984 6.42211 26.2704 7.47226C27.4425 8.52241 28.3559 9.82933 28.9393 11.2909C29.5227 12.7525 29.7603 14.3292 29.6335 15.8978C29.5067 17.4664 29.0189 18.9844 28.2083 20.3333C27.3792 21.4388 26.3972 22.4209 25.2917 23.25C23.9992 24.4674 23.0016 25.9637 22.375 27.625C21.9225 28.4802 21.2864 29.2247 20.5124 29.8053C19.7384 30.3859 18.8456 30.7882 17.8979 30.9833C16.9502 31.1784 15.9711 31.1615 15.0307 30.9339C14.0903 30.7063 13.2119 30.2735 12.4583 29.6667" stroke="#162F40" stroke-width="2.1875" stroke-linecap="round" stroke-linejoin="round"/>
<path d="M15.0823 15.0833C15.0736 14.3514 15.2486 13.629 15.5914 12.9822C15.9342 12.3355 16.4337 11.7851 17.0444 11.3814C17.655 10.9777 18.3571 10.7337 19.0864 10.6717C19.8158 10.6097 20.549 10.7317 21.219 11.0265C21.889 11.3213 22.4743 11.7795 22.9213 12.3591C23.3684 12.9387 23.6628 13.6212 23.7778 14.3441C23.8927 15.067 23.8244 15.8072 23.5792 16.4969C23.3339 17.1865 22.9195 17.8036 22.374 18.2917" stroke="#162F40" stroke-width="2.1875" stroke-linecap="round" stroke-linejoin="round"/>
</g>
<defs>
<clipPath id="clip0_923_2896">
<rect width="35" height="35" fill="white" transform="translate(0.5 0.5)"/>
</clipPath>
</defs>
</svg>
