<svg width="36" height="36" viewBox="0 0 36 36" fill="none" xmlns="http://www.w3.org/2000/svg">
<g clip-path="url(#clip0_923_3002)">
<path d="M7.79102 25.2917C7.79102 26.0652 8.09831 26.8071 8.64529 27.3541C9.19227 27.901 9.93413 28.2083 10.7077 28.2083C11.4812 28.2083 12.2231 27.901 12.7701 27.3541C13.3171 26.8071 13.6243 26.0652 13.6243 25.2917C13.6243 24.5181 13.3171 23.7763 12.7701 23.2293C12.2231 22.6823 11.4812 22.375 10.7077 22.375C9.93413 22.375 9.19227 22.6823 8.64529 23.2293C8.09831 23.7763 7.79102 24.5181 7.79102 25.2917Z" stroke="#162F40" stroke-width="2.1875" stroke-linecap="round" stroke-linejoin="round"/>
<path d="M22.375 25.2917C22.375 26.0652 22.6823 26.8071 23.2293 27.3541C23.7763 27.901 24.5181 28.2083 25.2917 28.2083C26.0652 28.2083 26.8071 27.901 27.3541 27.3541C27.901 26.8071 28.2083 26.0652 28.2083 25.2917C28.2083 24.5181 27.901 23.7763 27.3541 23.2293C26.8071 22.6823 26.0652 22.375 25.2917 22.375C24.5181 22.375 23.7763 22.6823 23.2293 23.2293C22.6823 23.7763 22.375 24.5181 22.375 25.2917Z" stroke="#162F40" stroke-width="2.1875" stroke-linecap="round" stroke-linejoin="round"/>
<path d="M7.79167 25.2917H4.875V16.5417M4.875 16.5417L7.79167 9.25H20.9167L26.75 16.5417M4.875 16.5417H26.75M26.75 16.5417H28.2083C28.9819 16.5417 29.7237 16.849 30.2707 17.3959C30.8177 17.9429 31.125 18.6848 31.125 19.4583V25.2917H28.2083M22.375 25.2917H13.625M18 16.5417V9.25" stroke="#162F40" stroke-width="2.1875" stroke-linecap="round" stroke-linejoin="round"/>
</g>
<defs>
<clipPath id="clip0_923_3002">
<rect width="35" height="35" fill="white" transform="translate(0.5 0.5)"/>
</clipPath>
</defs>
</svg>
