<svg width="36" height="36" viewBox="0 0 36 36" fill="none" xmlns="http://www.w3.org/2000/svg">
<g clip-path="url(#clip0_923_2935)">
<path d="M12.1667 6.33334H9.25L4.875 20.9167V24.5625" stroke="#162F40" stroke-width="2.1875" stroke-linecap="round" stroke-linejoin="round"/>
<path d="M23.834 6.33334H26.7507L31.1257 20.9167V24.5625" stroke="#162F40" stroke-width="2.1875" stroke-linecap="round" stroke-linejoin="round"/>
<path d="M15.084 23.8333H20.9173" stroke="#162F40" stroke-width="2.1875" stroke-linecap="round" stroke-linejoin="round"/>
<path d="M20.916 24.5625C20.916 25.9162 21.4538 27.2145 22.411 28.1717C23.3682 29.1289 24.6665 29.6667 26.0202 29.6667C27.3739 29.6667 28.6722 29.1289 29.6294 28.1717C30.5866 27.2145 31.1243 25.9162 31.1243 24.5625C31.1243 23.2088 30.5866 21.9105 29.6294 20.9533C28.6722 19.9961 27.3739 19.4583 26.0202 19.4583C24.6665 19.4583 23.3682 19.9961 22.411 20.9533C21.4538 21.9105 20.916 23.2088 20.916 24.5625Z" stroke="#162F40" stroke-width="2.1875" stroke-linecap="round" stroke-linejoin="round"/>
<path d="M4.875 24.5625C4.875 25.2328 5.00702 25.8965 5.26353 26.5158C5.52004 27.135 5.89601 27.6977 6.36998 28.1717C6.84394 28.6457 7.40662 29.0216 8.02589 29.2781C8.64515 29.5346 9.30888 29.6667 9.97917 29.6667C10.6495 29.6667 11.3132 29.5346 11.9324 29.2781C12.5517 29.0216 13.1144 28.6457 13.5884 28.1717C14.0623 27.6977 14.4383 27.135 14.6948 26.5158C14.9513 25.8965 15.0833 25.2328 15.0833 24.5625C15.0833 23.8922 14.9513 23.2285 14.6948 22.6092C14.4383 21.9899 14.0623 21.4273 13.5884 20.9533C13.1144 20.4793 12.5517 20.1034 11.9324 19.8469C11.3132 19.5904 10.6495 19.4583 9.97917 19.4583C9.30888 19.4583 8.64515 19.5904 8.02589 19.8469C7.40662 20.1034 6.84394 20.4793 6.36998 20.9533C5.89601 21.4273 5.52004 21.9899 5.26353 22.6092C5.00702 23.2285 4.875 23.8922 4.875 24.5625Z" stroke="#162F40" stroke-width="2.1875" stroke-linecap="round" stroke-linejoin="round"/>
</g>
<defs>
<clipPath id="clip0_923_2935">
<rect width="35" height="35" fill="white" transform="translate(0.5 0.5)"/>
</clipPath>
</defs>
</svg>
