<svg width="36" height="36" viewBox="0 0 36 36" fill="none" xmlns="http://www.w3.org/2000/svg">
<g clip-path="url(#clip0_923_2921)">
<path d="M10.709 31.125H25.2923V16.5417C25.2923 15.3813 24.8314 14.2686 24.0109 13.4481C23.1904 12.6276 22.0776 12.1667 20.9173 12.1667H15.084C13.9237 12.1667 12.8109 12.6276 11.9904 13.4481C11.1699 14.2686 10.709 15.3813 10.709 16.5417V31.125Z" stroke="#162F40" stroke-width="2.1875" stroke-linecap="round" stroke-linejoin="round"/>
<path d="M22.3757 4.875H13.6257C12.8521 4.875 12.1102 5.18229 11.5633 5.72927C11.0163 6.27625 10.709 7.01812 10.709 7.79167" stroke="#162F40" stroke-width="2.1875" stroke-linecap="round" stroke-linejoin="round"/>
<path d="M18 4.875V12.1667" stroke="#162F40" stroke-width="2.1875" stroke-linecap="round" stroke-linejoin="round"/>
<path d="M18 16.5417V22.375" stroke="#162F40" stroke-width="2.1875" stroke-linecap="round" stroke-linejoin="round"/>
<path d="M15.084 19.4583H20.9173" stroke="#162F40" stroke-width="2.1875" stroke-linecap="round" stroke-linejoin="round"/>
</g>
<defs>
<clipPath id="clip0_923_2921">
<rect width="35" height="35" fill="white" transform="translate(0.5 0.5)"/>
</clipPath>
</defs>
</svg>
