<svg width="36" height="36" viewBox="0 0 36 36" fill="none" xmlns="http://www.w3.org/2000/svg">
<g clip-path="url(#clip0_923_2907)">
<path d="M4.875 18C4.875 19.7236 5.21449 21.4303 5.87408 23.0227C6.53367 24.6151 7.50045 26.062 8.71922 27.2808C9.93799 28.4995 11.3849 29.4663 12.9773 30.1259C14.5697 30.7855 16.2764 31.125 18 31.125C19.7236 31.125 21.4303 30.7855 23.0227 30.1259C24.6151 29.4663 26.062 28.4995 27.2808 27.2808C28.4995 26.062 29.4663 24.6151 30.1259 23.0227C30.7855 21.4303 31.125 19.7236 31.125 18C31.125 16.2764 30.7855 14.5697 30.1259 12.9773C29.4663 11.3849 28.4995 9.93799 27.2808 8.71922C26.062 7.50045 24.6151 6.53367 23.0227 5.87408C21.4303 5.21449 19.7236 4.875 18 4.875C16.2764 4.875 14.5697 5.21449 12.9773 5.87408C11.3849 6.53367 9.93799 7.50045 8.71922 8.71922C7.50045 9.93799 6.53367 11.3849 5.87408 12.9773C5.21449 14.5697 4.875 16.2764 4.875 18Z" stroke="#162F40" stroke-width="2.1875" stroke-linecap="round" stroke-linejoin="round"/>
<path d="M13.625 15.0833H13.6396" stroke="#162F40" stroke-width="2.1875" stroke-linecap="round" stroke-linejoin="round"/>
<path d="M22.375 15.0833H22.3896" stroke="#162F40" stroke-width="2.1875" stroke-linecap="round" stroke-linejoin="round"/>
<path d="M14.3535 22.375C14.8288 22.86 15.396 23.2454 16.022 23.5084C16.6481 23.7715 17.3203 23.907 17.9993 23.907C18.6784 23.907 19.3506 23.7715 19.9767 23.5084C20.6027 23.2454 21.1699 22.86 21.6452 22.375" stroke="#162F40" stroke-width="2.1875" stroke-linecap="round" stroke-linejoin="round"/>
<path d="M18.0007 4.875C17.2271 4.875 16.4852 5.18229 15.9383 5.72927C15.3913 6.27625 15.084 7.01812 15.084 7.79167C15.084 8.56521 15.3913 9.30708 15.9383 9.85406C16.4852 10.401 17.2271 10.7083 18.0007 10.7083" stroke="#162F40" stroke-width="2.1875" stroke-linecap="round" stroke-linejoin="round"/>
</g>
<defs>
<clipPath id="clip0_923_2907">
<rect width="35" height="35" fill="white" transform="translate(0.5 0.5)"/>
</clipPath>
</defs>
</svg>
