<svg width="36" height="36" viewBox="0 0 36 36" fill="none" xmlns="http://www.w3.org/2000/svg">
<g clip-path="url(#clip0_922_2699)">
<path d="M18 31.125C14.519 31.125 11.1806 29.7422 8.71922 27.2808C6.25781 24.8194 4.875 21.481 4.875 18C4.875 16.2764 5.21449 14.5697 5.87408 12.9773C6.53367 11.3849 7.50045 9.93799 8.71922 8.71922C9.93799 7.50045 11.3849 6.53367 12.9773 5.87408C14.5697 5.21449 16.2764 4.875 18 4.875C19.7236 4.875 21.4303 5.21449 23.0227 5.87408C24.6151 6.53367 26.062 7.50045 27.2808 8.71922C28.4995 9.93799 29.4663 11.3849 30.1259 12.9773C30.7855 14.5697 31.125 16.2764 31.125 18" stroke="#162F40" stroke-width="2.1875" stroke-linecap="round" stroke-linejoin="round"/>
<path d="M18 10.7083V18L18.7292 18.7291" stroke="#162F40" stroke-width="2.1875" stroke-linecap="round" stroke-linejoin="round"/>
<path d="M26.75 22.375H29.6667C30.0534 22.375 30.4244 22.5286 30.6979 22.8021C30.9714 23.0756 31.125 23.4466 31.125 23.8333V25.2917C31.125 25.6784 30.9714 26.0494 30.6979 26.3229C30.4244 26.5964 30.0534 26.75 29.6667 26.75H28.2083C27.8216 26.75 27.4506 26.9036 27.1771 27.1771C26.9036 27.4506 26.75 27.8216 26.75 28.2083V29.6667C26.75 30.0534 26.9036 30.4244 27.1771 30.6979C27.4506 30.9714 27.8216 31.125 28.2083 31.125H31.125" stroke="#162F40" stroke-width="2.1875" stroke-linecap="round" stroke-linejoin="round"/>
<path d="M22.375 31.125V22.375" stroke="#162F40" stroke-width="2.1875" stroke-linecap="round" stroke-linejoin="round"/>
</g>
<defs>
<clipPath id="clip0_922_2699">
<rect width="35" height="35" fill="white" transform="translate(0.5 0.5)"/>
</clipPath>
</defs>
</svg>
