<svg width="36" height="36" viewBox="0 0 36 36" fill="none" xmlns="http://www.w3.org/2000/svg">
<g clip-path="url(#clip0_922_2709)">
<path d="M13.6221 30.374C11.0637 29.4688 8.84888 27.7928 7.28241 25.5768C5.71594 23.3608 4.87487 20.7138 4.875 18C4.875 16.2764 5.21449 14.5697 5.87408 12.9773C6.53367 11.3849 7.50045 9.93799 8.71922 8.71922C9.93799 7.50045 11.3849 6.53367 12.9773 5.87408C14.5697 5.21449 16.2764 4.875 18 4.875C19.7236 4.875 21.4303 5.21449 23.0227 5.87408C24.6151 6.53367 26.062 7.50045 27.2808 8.71922C28.4995 9.93799 29.4663 11.3849 30.1259 12.9773C30.7855 14.5697 31.125 16.2764 31.125 18" stroke="#162F40" stroke-width="2.1875" stroke-linecap="round" stroke-linejoin="round"/>
<path d="M18 10.7083V18" stroke="#162F40" stroke-width="2.1875" stroke-linecap="round" stroke-linejoin="round"/>
<path d="M18 22.375H20.9167C21.3034 22.375 21.6744 22.5286 21.9479 22.8021C22.2214 23.0756 22.375 23.4466 22.375 23.8333V25.2917C22.375 25.6784 22.2214 26.0494 21.9479 26.3229C21.6744 26.5964 21.3034 26.75 20.9167 26.75H19.4583C19.0716 26.75 18.7006 26.9036 18.4271 27.1771C18.1536 27.4506 18 27.8216 18 28.2083V29.6667C18 30.0534 18.1536 30.4244 18.4271 30.6979C18.7006 30.9714 19.0716 31.125 19.4583 31.125H22.375" stroke="#162F40" stroke-width="2.1875" stroke-linecap="round" stroke-linejoin="round"/>
<path d="M26.75 22.375V25.2917C26.75 25.6784 26.9036 26.0494 27.1771 26.3229C27.4506 26.5964 27.8216 26.75 28.2083 26.75H29.6667" stroke="#162F40" stroke-width="2.1875" stroke-linecap="round" stroke-linejoin="round"/>
<path d="M31.125 22.375V31.125" stroke="#162F40" stroke-width="2.1875" stroke-linecap="round" stroke-linejoin="round"/>
</g>
<defs>
<clipPath id="clip0_922_2709">
<rect width="35" height="35" fill="white" transform="translate(0.5 0.5)"/>
</clipPath>
</defs>
</svg>
