<svg width="36" height="36" viewBox="0 0 36 36" fill="none" xmlns="http://www.w3.org/2000/svg">
<g clip-path="url(#clip0_922_2849)">
<path d="M4.875 25.2916C4.875 25.6784 5.02865 26.0494 5.30214 26.3228C5.57563 26.5963 5.94656 26.75 6.33333 26.75C6.72011 26.75 7.09104 26.5963 7.36453 26.3228C7.63802 26.0494 7.79167 25.6784 7.79167 25.2916C7.79167 24.9049 7.63802 24.5339 7.36453 24.2604C7.09104 23.987 6.72011 23.8333 6.33333 23.8333C5.94656 23.8333 5.57563 23.987 5.30214 24.2604C5.02865 24.5339 4.875 24.9049 4.875 25.2916Z" stroke="#162F40" stroke-width="2.1875" stroke-linecap="round" stroke-linejoin="round"/>
<path d="M12.166 7.79165C12.166 8.17842 12.3197 8.54935 12.5932 8.82284C12.8666 9.09633 13.2376 9.24998 13.6243 9.24998C14.0111 9.24998 14.3821 9.09633 14.6555 8.82284C14.929 8.54935 15.0827 8.17842 15.0827 7.79165C15.0827 7.40487 14.929 7.03394 14.6555 6.76045C14.3821 6.48696 14.0111 6.33331 13.6243 6.33331C13.2376 6.33331 12.8666 6.48696 12.5932 6.76045C12.3197 7.03394 12.166 7.40487 12.166 7.79165Z" stroke="#162F40" stroke-width="2.1875" stroke-linecap="round" stroke-linejoin="round"/>
<path d="M6.33398 32.5834L12.1673 29.6667V25.2917H29.6673" stroke="#162F40" stroke-width="2.1875" stroke-linecap="round" stroke-linejoin="round"/>
<path d="M16.541 29.6667H29.666" stroke="#162F40" stroke-width="2.1875" stroke-linecap="round" stroke-linejoin="round"/>
<path d="M12.166 20.9167L16.541 18L17.9993 12.1667C22.3743 13.625 22.3743 18 22.3743 20.9167" stroke="#162F40" stroke-width="2.1875" stroke-linecap="round" stroke-linejoin="round"/>
</g>
<defs>
<clipPath id="clip0_922_2849">
<rect width="35" height="35" fill="white" transform="translate(0.5 0.5)"/>
</clipPath>
</defs>
</svg>
