<svg width="36" height="36" viewBox="0 0 36 36" fill="none" xmlns="http://www.w3.org/2000/svg">
<g clip-path="url(#clip0_923_2968)">
<path d="M6.33398 25.2917C6.33398 25.8662 6.44715 26.4351 6.66701 26.9659C6.88688 27.4967 7.20914 27.979 7.61539 28.3853C8.02165 28.7915 8.50394 29.1138 9.03474 29.3337C9.56554 29.5535 10.1345 29.6667 10.709 29.6667C11.2835 29.6667 11.8524 29.5535 12.3832 29.3337C12.914 29.1138 13.3963 28.7915 13.8026 28.3853C14.2088 27.979 14.5311 27.4967 14.751 26.9659C14.9708 26.4351 15.084 25.8662 15.084 25.2917C15.084 24.7172 14.9708 24.1482 14.751 23.6174C14.5311 23.0866 14.2088 22.6044 13.8026 22.1981C13.3963 21.7918 12.914 21.4696 12.3832 21.2497C11.8524 21.0298 11.2835 20.9167 10.709 20.9167C10.1345 20.9167 9.56554 21.0298 9.03474 21.2497C8.50394 21.4696 8.02165 21.7918 7.61539 22.1981C7.20914 22.6044 6.88688 23.0866 6.66701 23.6174C6.44715 24.1482 6.33398 24.7172 6.33398 25.2917Z" stroke="#162F40" stroke-width="2.1875" stroke-linecap="round" stroke-linejoin="round"/>
<path d="M20.916 25.2917C20.916 26.452 21.377 27.5648 22.1974 28.3853C23.0179 29.2058 24.1307 29.6667 25.291 29.6667C26.4513 29.6667 27.5641 29.2058 28.3846 28.3853C29.2051 27.5648 29.666 26.452 29.666 25.2917C29.666 24.1314 29.2051 23.0186 28.3846 22.1981C27.5641 21.3776 26.4513 20.9167 25.291 20.9167C24.1307 20.9167 23.0179 21.3776 22.1974 22.1981C21.377 23.0186 20.916 24.1314 20.916 25.2917Z" stroke="#162F40" stroke-width="2.1875" stroke-linecap="round" stroke-linejoin="round"/>
<path d="M13.8438 22.1562L26.75 6.33331" stroke="#162F40" stroke-width="2.1875" stroke-linecap="round" stroke-linejoin="round"/>
<path d="M9.25 6.33331L22.1562 22.1562" stroke="#162F40" stroke-width="2.1875" stroke-linecap="round" stroke-linejoin="round"/>
</g>
<defs>
<clipPath id="clip0_923_2968">
<rect width="35" height="35" fill="white" transform="translate(0.5 0.5)"/>
</clipPath>
</defs>
</svg>
