<svg width="36" height="36" viewBox="0 0 36 36" fill="none" xmlns="http://www.w3.org/2000/svg">
<g clip-path="url(#clip0_923_3015)">
<path d="M15.084 23.8333V31.125" stroke="#162F40" stroke-width="2.1875" stroke-linecap="round" stroke-linejoin="round"/>
<path d="M20.916 23.8333V31.125" stroke="#162F40" stroke-width="2.1875" stroke-linecap="round" stroke-linejoin="round"/>
<path d="M13.625 13.625H22.375L20.9167 23.8333H15.0833L13.625 13.625Z" stroke="#162F40" stroke-width="2.1875" stroke-linecap="round" stroke-linejoin="round"/>
<path d="M7.79102 16.5417C9.73497 14.5977 11.6804 13.625 13.6243 13.625" stroke="#162F40" stroke-width="2.1875" stroke-linecap="round" stroke-linejoin="round"/>
<path d="M28.2083 16.5417C26.2644 14.5977 24.319 13.625 22.375 13.625" stroke="#162F40" stroke-width="2.1875" stroke-linecap="round" stroke-linejoin="round"/>
<path d="M15.084 6.33335C15.084 7.1069 15.3913 7.84877 15.9383 8.39575C16.4852 8.94273 17.2271 9.25002 18.0007 9.25002C18.7742 9.25002 19.5161 8.94273 20.063 8.39575C20.61 7.84877 20.9173 7.1069 20.9173 6.33335C20.9173 5.55981 20.61 4.81794 20.063 4.27096C19.5161 3.72398 18.7742 3.41669 18.0007 3.41669C17.2271 3.41669 16.4852 3.72398 15.9383 4.27096C15.3913 4.81794 15.084 5.55981 15.084 6.33335Z" stroke="#162F40" stroke-width="2.1875" stroke-linecap="round" stroke-linejoin="round"/>
</g>
<defs>
<clipPath id="clip0_923_3015">
<rect width="35" height="35" fill="white" transform="translate(0.5 0.5)"/>
</clipPath>
</defs>
</svg>
