<svg width="40" height="40" viewBox="0 0 40 40" fill="none" xmlns="http://www.w3.org/2000/svg">
<g clip-path="url(#clip0_727_791)">
<path d="M25.8647 26.8667C23.8499 29.6526 20.9697 31.4994 17.7708 31.4994C11.6792 31.4994 6.74023 24.7953 6.74023 17.6735C6.74023 10.5516 11.6792 6.19531 17.7708 6.19531C23.8624 6.19531 28.8014 10.5532 28.8014 17.6735C28.8014 19.6977 28.4025 21.6874 27.6927 23.4997" stroke="#69C6FB" stroke-width="1.09929" stroke-miterlimit="10"/>
<path d="M14.3422 18.3457C13.9119 18.9377 13.1817 19.3288 12.3556 19.3288C11.5296 19.3288 10.8166 18.9487 10.3848 18.3677" stroke="#69C6FB" stroke-width="0.942248" stroke-linecap="round" stroke-linejoin="round"/>
<path d="M24.9594 18.3457C24.5291 18.9377 23.7989 19.3288 22.9728 19.3288C22.1468 19.3288 21.4338 18.9487 21.002 18.3677" stroke="#69C6FB" stroke-width="0.942248" stroke-linecap="round" stroke-linejoin="round"/>
<path d="M20.3552 26.1621C19.8119 26.7542 18.8916 27.1452 17.8489 27.1452C16.8061 27.1452 15.9078 26.7651 15.3613 26.1841" stroke="#69C6FB" stroke-width="0.942248" stroke-linecap="round" stroke-linejoin="round"/>
<path d="M7.04843 20.7703H5.47645C4.28922 20.7703 3.32812 19.8076 3.32812 18.6219V17.6561C3.32812 16.4689 4.29079 15.5078 5.47645 15.5078H6.82229" stroke="#69C6FB" stroke-width="1.09929" stroke-miterlimit="10"/>
<path d="M28.4297 20.7703H30.0017C31.1889 20.7703 32.15 19.8076 32.15 18.6219V17.6561C32.15 16.4689 31.1873 15.5078 30.0017 15.5078H28.6558" stroke="#69C6FB" stroke-width="1.09929" stroke-miterlimit="10"/>
<path d="M4.84375 15.6006V13.0958C4.84375 6.16717 10.4611 0.549805 17.3898 0.549805H18.2724C25.201 0.549805 30.8184 6.16717 30.8184 13.0958V15.6666" stroke="#69C6FB" stroke-width="1.09929" stroke-miterlimit="10"/>
<path d="M33.2852 29.095L26.4366 22.2465C26.1335 21.9434 25.6483 21.901 25.2557 22.1412C24.8788 22.3721 24.7469 22.7568 24.8505 23.5562L25.0076 24.7356C25.3075 26.4693 26.1634 27.3252 27.1213 28.2847L27.3349 28.4983C27.9646 29.128 28.7655 29.5661 29.6544 29.7656L31.7478 30.6309L32.5817 31.4648L34.1175 29.9289L33.2836 29.095H33.2852Z" stroke="#69C6FB" stroke-width="1.09929" stroke-miterlimit="10"/>
<path d="M32.5723 31.4746L36.8642 35.7665C37.2914 36.1937 37.9839 36.1937 38.4111 35.7665C38.8382 35.3394 38.8382 34.6468 38.4111 34.2197L34.1191 29.9277L32.5723 31.4746Z" stroke="#69C6FB" stroke-width="1.09929" stroke-miterlimit="10"/>
<path d="M10.0977 9.14135C10.0977 9.14135 13.3233 5.70528 18.0502 4.29662C22.9813 2.82672 26.0107 3.22089 26.0107 3.22089" stroke="#69C6FB" stroke-width="0.628165" stroke-miterlimit="10"/>
<path d="M17.6797 8.33789V10.359" stroke="#69C6FB" stroke-width="0.182429" stroke-miterlimit="10"/>
<path d="M17.6797 11.8018V13.8229" stroke="#69C6FB" stroke-width="0.182429" stroke-miterlimit="10"/>
<path d="M17.6797 15.3809V17.4036" stroke="#69C6FB" stroke-width="0.182429" stroke-miterlimit="10"/>
<path d="M17.6797 18.9746V20.9973" stroke="#69C6FB" stroke-width="0.182429" stroke-miterlimit="10"/>
<path d="M16.4199 22.1602L15.0332 23.6301" stroke="#69C6FB" stroke-width="0.182429" stroke-miterlimit="10"/>
<path d="M14.0429 24.6133L12.6562 26.0848" stroke="#69C6FB" stroke-width="0.182429" stroke-miterlimit="10"/>
<path d="M19.1191 22.1602L20.5074 23.6301" stroke="#69C6FB" stroke-width="0.182429" stroke-miterlimit="10"/>
<path d="M21.498 24.6133L22.8847 26.0848" stroke="#69C6FB" stroke-width="0.182429" stroke-miterlimit="10"/>
<path d="M2.04883 39.4508C2.89214 38.5933 3.90977 37.9165 5.04204 37.4721L12.167 34.6767C13.0417 34.3328 13.6181 33.4895 13.6181 32.5504V30.4209" stroke="#69C6FB" stroke-width="1.09929" stroke-linecap="round" stroke-linejoin="round"/>
<path d="M21.9219 30.4189V32.5484C21.9219 33.4875 22.4966 34.3324 23.3729 34.6748L30.4979 37.4701C31.5642 37.8878 32.53 38.5129 33.3435 39.3012" stroke="#69C6FB" stroke-width="1.09929" stroke-linecap="round" stroke-linejoin="round"/>
</g>
<defs>
<clipPath id="clip0_727_791">
<rect width="39" height="40" fill="white" transform="translate(0.5)"/>
</clipPath>
</defs>
</svg>
