<svg width="40" height="40" viewBox="0 0 40 40" fill="none" xmlns="http://www.w3.org/2000/svg">
<g clip-path="url(#clip0_727_814)">
<path d="M18.8188 0.549805C18.8188 0.549805 18.1899 3.94275 18.8188 7.70047C19.4477 11.4582 24.0309 17.5947 20.9885 22.5961C18.333 26.9639 13.4165 25.8664 10.8789 26.3648C8.14942 26.9025 4.88226 28.7845 2.99711 32.418C1.11196 36.0516 0.656006 39.4429 0.656006 39.4429" stroke="#69C6FB" stroke-width="1.10059" stroke-linecap="round" stroke-linejoin="round"/>
<path d="M5.22632 39.4435C5.22632 39.4435 5.88667 33.5208 9.47143 33.5758C12.5578 33.623 13.2685 39.6621 21.8452 39.4435C31.2615 39.203 37.9137 31.7237 38.9797 25.279C40.0331 18.9019 38.5568 13.9068 36.9232 11.2292C35.4956 8.8881 34.0098 8.48718 32.2394 8.54535C30.469 8.60352 27.499 9.51701 25.9 9.11608C24.301 8.71515 22.702 6.43223 22.8734 3.97635C23.0448 1.52047 23.2162 0.834961 23.2162 0.834961" stroke="#69C6FB" stroke-width="1.10059" stroke-linecap="round" stroke-linejoin="round"/>
<path d="M35.2537 25.3239C35.359 24.9497 35.4439 24.5786 35.5037 24.2107C35.7049 22.9906 35.7898 21.8366 35.7835 20.7549" stroke="#69C6FB" stroke-width="1.10059" stroke-linecap="round" stroke-linejoin="round"/>
<path d="M17.4958 34.6081C18.6027 35.1301 20.0209 35.4745 21.9359 35.4257C27.747 35.2779 32.2295 31.646 34.3222 27.6367" stroke="#69C6FB" stroke-width="1.10059" stroke-linecap="round" stroke-linejoin="round"/>
</g>
<defs>
<clipPath id="clip0_727_814">
<rect width="39.7783" height="40" fill="white" transform="translate(0.11084)"/>
</clipPath>
</defs>
</svg>
