<svg width="40" height="40" viewBox="0 0 40 40" fill="none" xmlns="http://www.w3.org/2000/svg">
<g clip-path="url(#clip0_727_821)">
<path d="M37.6172 20.5957H31.924C30.1716 20.5957 28.9312 22.3083 29.4742 23.9724L30.4762 27.0358L30.4585 27.0446C31.1559 28.3423 31.5355 29.8387 31.4826 31.4322C31.3281 36.0581 27.4084 39.8144 22.7825 39.7835C18.1566 39.7526 14.1972 35.8903 14.1972 31.1364C14.1972 29.6533 14.5724 28.2585 15.2301 27.0402L16.2321 23.9769C16.775 22.3128 15.5346 20.6001 13.7823 20.6001H1.17578" stroke="#69C6FB" stroke-width="1.10376" stroke-miterlimit="10" stroke-linecap="round"/>
<path d="M25.4451 23.6146C24.9993 20.8514 24.7521 17.7615 25.7718 11.1361C26.787 4.5106 29.0249 0.123047 29.0249 0.123047C29.0249 0.123047 24.1253 7.41504 21.8697 13.8595C21.8697 13.8595 19.57 20.7675 19.0668 24.9034C18.6475 28.3596 18.5989 29.8074 18.6828 30.9992C18.6828 31.2155 18.7049 31.4274 18.7402 31.6349C18.7402 31.6525 18.7402 31.6702 18.7446 31.6878C18.7446 31.7011 18.7534 31.7143 18.7534 31.7276C19.1242 33.758 20.8987 35.2985 23.0351 35.2985C25.4407 35.2985 27.3917 33.3475 27.3917 30.9419C27.3917 30.2709 27.2372 29.6353 26.9635 29.0703C26.6634 28.2714 25.8027 25.8745 25.4363 23.6146H25.4451Z" stroke="#69C6FB" stroke-width="1.10376" stroke-miterlimit="10"/>
<path d="M1.17578 24.9922H10.3967" stroke="#69C6FB" stroke-width="1.10376" stroke-miterlimit="10" stroke-linecap="round"/>
</g>
<defs>
<clipPath id="clip0_727_821">
<rect width="39" height="40" fill="white" transform="translate(0.5)"/>
</clipPath>
</defs>
</svg>
