<svg width="39" height="40" viewBox="0 0 39 40" fill="none" xmlns="http://www.w3.org/2000/svg">
<path d="M29.3538 39.3405C26.7842 27.6192 35.1189 23.3629 33.4322 12.9922C32.0486 4.43353 27.0477 0.658203 19.1676 0.658203C11.2876 0.658203 5.54221 6.75934 5.54221 14.2836C5.54221 15.7595 5.7794 17.1827 6.20767 18.5136L4.19812 23.6396C3.93457 24.305 4.41554 25.0232 5.12712 25.0496L7.21574 25.122L8.45442 30.8213C8.79044 32.363 10.24 33.3975 11.8081 33.2196L19.1676 32.3696C19.1676 32.3696 21.1047 31.8293 22.2116 28.1528" stroke="#69C6FB" stroke-width="1.10376" stroke-linecap="round" stroke-linejoin="round"/>
<path d="M15.8613 32.7461C15.8613 32.7461 18.5232 35.8691 17.0078 39.3348" stroke="#69C6FB" stroke-width="1.10376" stroke-linecap="round" stroke-linejoin="round"/>
<path d="M24.8012 20.7209C24.0369 17.5584 26.9886 18.3556 26.9886 18.3556C29.3606 19.2055 29.4133 17.3739 29.2947 16.4449C29.2552 16.1418 29.3738 15.8387 29.6175 15.6476C30.9287 14.6132 31.436 13.2823 30.6388 11.4111C29.6439 9.07869 27.3774 9.52673 27.3774 9.52673C26.2573 6.28509 23.4439 7.27998 23.4439 7.27998C23.4439 7.27998 22.9102 5.44173 20.848 5.31655C18.5881 5.17818 17.7381 6.89125 17.7381 6.89125C17.1188 5.57351 15.6165 5.42855 14.536 5.92271C13.2644 6.50251 13.1985 7.78731 13.1985 7.78731C13.1985 7.78731 11.8873 7.30633 10.8595 8.32758C9.83167 9.35542 10.5762 10.7654 10.5762 10.7654C9.14645 11.4243 8.27674 13.559 9.56153 15.081C10.6091 16.3263 12.421 15.9573 12.421 15.9573C12.2958 18.2436 15.4189 18.0591 15.4189 18.0591C15.4584 20.9318 19.2996 19.7063 19.2996 19.7063C19.2996 19.7063 21.2367 18.8959 22.1591 20.6814" stroke="#69C6FB" stroke-width="1.10376" stroke-linecap="round" stroke-linejoin="round"/>
<path d="M12.4277 15.9636C12.4277 15.9636 15.05 15.2718 13.2777 12.2871" stroke="#69C6FB" stroke-width="1.10376" stroke-linecap="round" stroke-linejoin="round"/>
<path d="M27.376 9.52051C27.376 9.52051 25.9594 9.81041 25.373 10.8119" stroke="#69C6FB" stroke-width="1.10376" stroke-linecap="round" stroke-linejoin="round"/>
<path d="M19.7402 17.4785C19.7402 17.4785 19.8786 19.0334 21.3215 19.778" stroke="#69C6FB" stroke-width="1.10376" stroke-linecap="round" stroke-linejoin="round"/>
<path d="M26.9879 18.3556C26.9879 18.3556 25.4922 17.0378 25.9995 14.9756" stroke="#69C6FB" stroke-width="1.10376" stroke-linecap="round" stroke-linejoin="round"/>
<path d="M22.0799 16.1617C22.0799 16.1617 23.0287 13.8886 21.1311 12.8147C19.227 11.7407 19.7409 10.166 19.7409 10.166" stroke="#69C6FB" stroke-width="1.10376" stroke-linecap="round" stroke-linejoin="round"/>
<path d="M17.3223 13.0584C17.3223 13.0584 17.8032 11.3453 20.531 12.3995" stroke="#69C6FB" stroke-width="1.10376" stroke-linecap="round" stroke-linejoin="round"/>
<path d="M17.7319 6.89062C17.7319 6.89062 17.3959 7.92505 17.811 8.79476" stroke="#69C6FB" stroke-width="1.10376" stroke-linecap="round" stroke-linejoin="round"/>
<path d="M23.0938 18.9552C23.0938 18.9552 24.2929 18.8234 24.7146 20.2861" stroke="#69C6FB" stroke-width="1.10376" stroke-linecap="round" stroke-linejoin="round"/>
<path d="M13.2714 9.26957C12.9881 8.59752 13.1923 7.78711 13.1923 7.78711" stroke="#69C6FB" stroke-width="1.10376" stroke-linecap="round" stroke-linejoin="round"/>
<path d="M15.4238 18.0653C15.4238 18.0653 15.7006 16.0886 17.3214 16.1611" stroke="#69C6FB" stroke-width="1.10376" stroke-linecap="round" stroke-linejoin="round"/>
<path d="M23.4442 7.2793C23.4442 7.2793 22.3241 8.56409 23.095 9.8423" stroke="#69C6FB" stroke-width="1.10376" stroke-linecap="round" stroke-linejoin="round"/>
</svg>
