<svg width="39" height="40" viewBox="0 0 39 40" fill="none" xmlns="http://www.w3.org/2000/svg">
<path d="M16.5988 32.7799C13.3217 36.0569 8.00924 36.0569 4.73221 32.7799L4.27613 32.3238C0.999103 29.0467 0.999103 23.7342 4.27613 20.4572L21.5734 3.15992C24.8505 -0.117108 30.163 -0.117108 33.44 3.15992L33.8961 3.616C37.1731 6.89303 37.1731 12.2055 33.8961 15.4826L27.2744 22.1042" stroke="#1E608C" stroke-width="1.39358" stroke-linecap="round" stroke-linejoin="round"/>
<path d="M12.9258 11.8086L23.2383 22.1211" stroke="#1E608C" stroke-width="1.39358" stroke-linecap="round" stroke-linejoin="round"/>
<path d="M25.2464 39.2994C30.0089 39.2994 33.8697 35.4386 33.8697 30.676C33.8697 25.9135 30.0089 22.0527 25.2464 22.0527C20.4838 22.0527 16.623 25.9135 16.623 30.676C16.623 35.4386 20.4838 39.2994 25.2464 39.2994Z" stroke="#1E608C" stroke-width="1.39358" stroke-linecap="round" stroke-linejoin="round"/>
<path d="M30.8983 25.0264L19.5977 36.327" stroke="#1E608C" stroke-width="1.39358" stroke-linecap="round" stroke-linejoin="round"/>
<path d="M18.1211 11.6729L24.0924 5.70165C25.9758 3.8182 29.0417 3.8182 30.9252 5.70165" stroke="#1E608C" stroke-width="1.39358" stroke-linecap="round" stroke-linejoin="round"/>
<path d="M12.5633 17.2393L6.71875 23.0839" stroke="#1E608C" stroke-width="1.39358" stroke-linecap="round" stroke-linejoin="round"/>
<g clip-path="url(#clip0_727_844)">
<path d="M16.5988 32.7789C13.3217 36.0559 8.00924 36.0559 4.73221 32.7789L4.27613 32.3228C0.999103 29.0458 0.999103 23.7333 4.27613 20.4562L21.5734 3.15894C24.8505 -0.118085 30.163 -0.118085 33.44 3.15894L33.8961 3.61502C37.1731 6.89205 37.1731 12.2046 33.8961 15.4816L27.2744 22.1032" stroke="#69C6FB" stroke-width="1.10376" stroke-linecap="round" stroke-linejoin="round"/>
<path d="M12.9258 11.8076L23.2383 22.1201" stroke="#69C6FB" stroke-width="1.10376" stroke-linecap="round" stroke-linejoin="round"/>
<path d="M25.2464 39.2994C30.0089 39.2994 33.8697 35.4386 33.8697 30.676C33.8697 25.9135 30.0089 22.0527 25.2464 22.0527C20.4838 22.0527 16.623 25.9135 16.623 30.676C16.623 35.4386 20.4838 39.2994 25.2464 39.2994Z" stroke="#69C6FB" stroke-width="1.10376" stroke-linecap="round" stroke-linejoin="round"/>
<path d="M30.8983 25.0254L19.5977 36.3261" stroke="#69C6FB" stroke-width="1.10376" stroke-linecap="round" stroke-linejoin="round"/>
<path d="M18.1211 11.6729L24.0924 5.70165C25.9758 3.8182 29.0417 3.8182 30.9252 5.70165" stroke="#69C6FB" stroke-width="1.10376" stroke-linecap="round" stroke-linejoin="round"/>
<path d="M12.5633 17.2383L6.71875 23.0829" stroke="#69C6FB" stroke-width="1.10376" stroke-linecap="round" stroke-linejoin="round"/>
</g>
<defs>
<clipPath id="clip0_727_844">
<rect width="35.9375" height="40" fill="white" transform="translate(1.11719)"/>
</clipPath>
</defs>
</svg>
