<svg width="39" height="40" viewBox="0 0 39 40" fill="none" xmlns="http://www.w3.org/2000/svg">
<g clip-path="url(#clip0_727_862)">
<path d="M25.7209 11.5848C25.6524 12.8415 25.3911 13.9053 25.3911 13.9053C24.7442 16.3439 23.1454 20.0329 19.9292 20.0329C16.713 20.0329 15.0271 16.1448 14.3179 13.7124C14.3179 13.7124 13.8887 12.4247 13.8887 11.4355" stroke="#69C6FB" stroke-width="1.1" stroke-linecap="round" stroke-linejoin="round"/>
<path d="M24.4268 21.6006C24.4268 21.6006 22.293 23.162 19.8979 23.162C17.2354 23.162 15.3691 21.6006 15.3691 21.6006C9.78273 21.6006 5.25391 26.1294 5.25391 31.7158V37.2089C5.25391 38.3908 6.21193 39.3489 7.3939 39.3489H32.402C33.584 39.3489 34.542 38.3908 34.542 37.2089V31.7158C34.542 26.1294 30.0132 21.6006 24.4268 21.6006Z" stroke="#69C6FB" stroke-width="1.1" stroke-linecap="round" stroke-linejoin="round"/>
<path d="M17.9255 28.8785L19.008 25.1895H20.8805L22.0749 28.8785" stroke="#69C6FB" stroke-width="1.1" stroke-linecap="round" stroke-linejoin="round"/>
<path d="M25.354 21.6875C25.354 21.6875 22.6603 30.0982 19.9729 31.4232" stroke="#69C6FB" stroke-width="1.1" stroke-linecap="round" stroke-linejoin="round"/>
<path d="M19.9729 31.4232C17.2792 30.0982 14.5918 21.6875 14.5918 21.6875" stroke="#69C6FB" stroke-width="1.1" stroke-linecap="round" stroke-linejoin="round"/>
<path d="M20.8809 25.1896L21.4967 23.373" stroke="#69C6FB" stroke-width="1.1" stroke-linecap="round" stroke-linejoin="round"/>
<path d="M19.0459 25.1896L18.4238 23.373" stroke="#69C6FB" stroke-width="1.1" stroke-linecap="round" stroke-linejoin="round"/>
<path d="M24.278 21.6013L23.4941 18.6152" stroke="#69C6FB" stroke-width="1.1" stroke-linecap="round" stroke-linejoin="round"/>
<path d="M15.4863 21.6004L16.3759 18.21" stroke="#69C6FB" stroke-width="1.1" stroke-linecap="round" stroke-linejoin="round"/>
<path d="M25.4961 8.05176C25.8693 9.49501 25.7138 11.5852 25.7138 11.5852" stroke="#69C6FB" stroke-width="1.1" stroke-linecap="round" stroke-linejoin="round"/>
<path d="M13.8832 11.404C13.8148 10.2905 13.9454 8.97162 14.2129 7.91406" stroke="#69C6FB" stroke-width="1.1" stroke-linecap="round" stroke-linejoin="round"/>
<path d="M25.7582 7.91461H13.9509L13.4159 4.40601C13.2044 2.99386 14.0255 1.62526 15.3755 1.16492C16.433 0.810323 17.8949 0.511719 19.8483 0.511719C21.8017 0.511719 23.2698 0.804102 24.3274 1.15869C25.6773 1.61282 26.4985 2.98764 26.2869 4.39979L25.7519 7.90839L25.7582 7.91461Z" stroke="#69C6FB" stroke-width="1.1" stroke-linecap="round" stroke-linejoin="round"/>
<path d="M19.8535 2.83203V5.59412" stroke="#69C6FB" stroke-width="1.1" stroke-linecap="round" stroke-linejoin="round"/>
<path d="M21.2345 4.21289H18.4724" stroke="#69C6FB" stroke-width="1.1" stroke-linecap="round" stroke-linejoin="round"/>
<path d="M19.9729 39.3493V31.4238" stroke="#69C6FB" stroke-width="1.1" stroke-linecap="round" stroke-linejoin="round"/>
</g>
<defs>
<clipPath id="clip0_727_862">
<rect width="39" height="40" fill="white"/>
</clipPath>
</defs>
</svg>
